<?xml version="1.0" encoding="utf-8"?>
<!-- Generator: Adobe Illustrator 15.0.2, SVG Export Plug-In . SVG Version: 6.00 Build 0)  -->
<!DOCTYPE svg PUBLIC "-//W3C//DTD SVG 1.1//EN" "http://www.w3.org/Graphics/SVG/1.1/DTD/svg11.dtd">
<svg version="1.1" id="Layer_1" xmlns="http://www.w3.org/2000/svg" xmlns:xlink="http://www.w3.org/1999/xlink" x="0px" y="0px"
	 width="300px" height="103.333px" viewBox="0 0 300 103.333" enable-background="new 0 0 300 103.333" xml:space="preserve">
<linearGradient id="SVGID_1_" gradientUnits="userSpaceOnUse" x1="109.1699" y1="28.6074" x2="151.0005" y2="16.2751">
	<stop  offset="0" style="stop-color:#FFFFFF"/>
	<stop  offset="0.3685" style="stop-color:#FFFFFE"/>
	<stop  offset="0.601" style="stop-color:#FFFDF7"/>
	<stop  offset="0.796" style="stop-color:#FFFAEC"/>
	<stop  offset="0.9691" style="stop-color:#FFF5DA"/>
	<stop  offset="1" style="stop-color:#FFF4D6"/>
</linearGradient>
<path fill="url(#SVGID_1_)" d="M134.107,5.003c-25.979,0-46.08,17.35-49.204,41.307c4.229,1.316,7.55,2.997,10.032,5.117
	c1.646-20.016,17.85-34.365,39.172-34.365c8.861,0,16.837,2.479,23.253,6.809c0.168-0.524,0.586-1.127,1.652-1.431
	c4.238-1.203,8.183-1.08,11.769,0.328c0.197-0.747,0.43-1.432,0.682-2.081C162.506,10.953,149.315,5.003,134.107,5.003z"/>
<linearGradient id="SVGID_2_" gradientUnits="userSpaceOnUse" x1="108.9585" y1="54.5806" x2="138.9577" y2="9.936">
	<stop  offset="0.6573" style="stop-color:#FBC400"/>
	<stop  offset="1" style="stop-color:#FFF4D6"/>
</linearGradient>
<path fill="url(#SVGID_2_)" d="M134.107,8.003c-24.697,0-43.637,16.59-46.305,39.317c1.603,0.631,3.039,1.334,4.329,2.106
	c2.558-20.463,19.679-35.365,41.976-35.365c8.343,0,15.955,2.08,22.358,5.75c0.229-0.099,0.468-0.187,0.72-0.258
	c2.71-0.77,5.334-1.036,7.861-0.848C156.941,11.976,146.221,8.003,134.107,8.003z"/>
<g>
	<linearGradient id="SVGID_3_" gradientUnits="userSpaceOnUse" x1="215.3496" y1="67.9263" x2="178.0064" y2="52.8386">
		<stop  offset="0" style="stop-color:#8997CA"/>
		<stop  offset="1" style="stop-color:#00489B"/>
	</linearGradient>
	<path fill="url(#SVGID_3_)" d="M190.519,71.87V23.915h-5.957c-0.139,3.138-1.192,5.955-3.063,7.985
		c-0.956,1.037-2.062,1.767-3.209,2.22c0.818,2.018,1.561,4.11,2.139,6.338c0.887,3.664,1.152,5.034,1.473,8.383
		c0.161,1.679,0.241,3.362,0.241,5.042c0,9.817-2.735,19.499-7.577,27.603v3.942h35.137V71.87H190.519z"/>
	<linearGradient id="SVGID_4_" gradientUnits="userSpaceOnUse" x1="237.1943" y1="61.4214" x2="211.7929" y2="51.1586">
		<stop  offset="0" style="stop-color:#8997CA"/>
		<stop  offset="1" style="stop-color:#00489B"/>
	</linearGradient>
	<path fill="url(#SVGID_4_)" d="M228.463,85.427H212.51V23.915h15.953V85.427z"/>
	<linearGradient id="SVGID_5_" gradientUnits="userSpaceOnUse" x1="297.8672" y1="73.6147" x2="257.1383" y2="57.1592">
		<stop  offset="0" style="stop-color:#8997CA"/>
		<stop  offset="1" style="stop-color:#00489B"/>
	</linearGradient>
	<path fill="url(#SVGID_5_)" d="M269.285,62.556h-13.28l6.731-19.644L269.285,62.556z M273.619,74.729l3.966,10.698h17.061
		l-23.147-61.513h-17.43l-23.609,61.513h16.876l4.243-10.698H273.619z"/>
	<linearGradient id="SVGID_6_" gradientUnits="userSpaceOnUse" x1="99.8008" y1="64.2368" x2="65.105" y2="50.2188">
		<stop  offset="0" style="stop-color:#8997CA"/>
		<stop  offset="1" style="stop-color:#00489B"/>
	</linearGradient>
	<path fill="url(#SVGID_6_)" d="M83.571,47.919c-5.441-1.66-6.086-1.845-6.916-2.214c-2.768-1.291-4.15-2.858-4.15-4.796
		c0-2.951,3.043-5.256,6.824-5.256c2.632,0,5.032,0.676,7.496,2.094c1.399-4.333,3.403-8.356,5.915-12.002
		c-5.211-2.186-10.723-3.372-15.993-3.372c-12.449,0-20.935,8.392-20.935,20.749c0,5.35,1.568,9.315,4.61,11.99
		c2.307,1.936,4.98,3.135,11.99,5.164c7.469,2.213,9.59,3.781,9.59,7.102c0,3.596-3.27,6.096-7.961,6.424
		c-4.406,0.308-8.434,0.195-13.32-4.047l-7.399,10.256c6.456,4.521,13.926,6.917,21.396,6.917c15.125,0,23.979-8.114,23.979-21.948
		C98.696,56.126,94.269,51.054,83.571,47.919z"/>
</g>
<g>
	<linearGradient id="SVGID_7_" gradientUnits="userSpaceOnUse" x1="238.4834" y1="61.9419" x2="218.9806" y2="54.0623">
		<stop  offset="0" style="stop-color:#8997CA"/>
		<stop  offset="1" style="stop-color:#00489B"/>
	</linearGradient>
	<path fill="url(#SVGID_7_)" d="M215.51,26.915c0,5.15,0,50.362,0,55.513c3.039,0,6.914,0,9.953,0c0-5.15,0-50.362,0-55.513
		C222.424,26.915,218.549,26.915,215.51,26.915z"/>
	<linearGradient id="SVGID_8_" gradientUnits="userSpaceOnUse" x1="301.7236" y1="74.7104" x2="267.628" y2="60.9349">
		<stop  offset="0" style="stop-color:#8997CA"/>
		<stop  offset="1" style="stop-color:#00489B"/>
	</linearGradient>
	<path fill="url(#SVGID_8_)" d="M256.13,26.915c-1.291,3.366-18.67,48.645-21.306,55.513c4.016,0,8.25,0,10.474,0
		c1.018-2.565,4.243-10.698,4.243-10.698h26.166c0,0,2.996,8.085,3.965,10.698c2.285,0,6.607,0,10.64,0
		c-2.574-6.839-19.611-52.116-20.89-55.513C266.632,26.915,258.903,26.915,256.13,26.915z M253.167,61.583l9.608-28.039
		l10.672,32.012h-21.642L253.167,61.583z"/>
	<linearGradient id="SVGID_9_" gradientUnits="userSpaceOnUse" x1="218.584" y1="69.2329" x2="191.6528" y2="58.352">
		<stop  offset="0" style="stop-color:#8997CA"/>
		<stop  offset="1" style="stop-color:#00489B"/>
	</linearGradient>
	<path fill="url(#SVGID_9_)" d="M187.519,74.87c0,0,0-42.683,0-47.955c-0.427,0-0.874,0-1.329,0
		c-0.568,2.706-1.752,5.128-3.493,7.019c-0.527,0.572-1.116,1.054-1.725,1.503c0.528,1.474,1,2.913,1.364,4.315
		c0.912,3.771,1.207,5.291,1.543,8.803c0.169,1.762,0.255,3.555,0.255,5.328c0,9.443-2.352,18.62-6.569,26.577
		c0,0.884,0,1.556,0,1.968c4.551,0,24.586,0,29.137,0c0-2.604,0-4.953,0-7.558C202.432,74.87,187.519,74.87,187.519,74.87z"/>
	<linearGradient id="SVGID_10_" gradientUnits="userSpaceOnUse" x1="104.3623" y1="66.1079" x2="74.6952" y2="54.1216">
		<stop  offset="0" style="stop-color:#8997CA"/>
		<stop  offset="1" style="stop-color:#00489B"/>
	</linearGradient>
	<path fill="url(#SVGID_10_)" d="M58.812,43.123c0,4.428,1.175,7.612,3.592,9.737c1.705,1.43,3.784,2.492,10.843,4.535
		c6.669,1.976,11.756,3.962,11.756,9.983c0,5.183-4.321,8.967-10.752,9.416c-3.957,0.276-8.184,0.217-12.875-2.818
		c-1.354,1.878-2.29,3.174-3.711,5.144c5.304,3.095,11.119,4.809,17.053,4.809c13.528,0,20.979-6.729,20.979-18.948
		c0-6.231-2.205-11.027-12.969-14.182c-0.032-0.01-1.432-0.437-1.432-0.437c-4.376-1.334-4.938-1.506-5.859-1.915
		c-3.952-1.843-5.932-4.371-5.932-7.537c0-4.63,4.315-8.256,9.824-8.256c1.992,0,3.901,0.368,5.78,1.039
		c0.883-2.209,1.925-4.35,3.118-6.407c-3.849-1.246-7.76-1.912-11.48-1.912C66.02,25.374,58.812,32.506,58.812,43.123z"/>
</g>
<g>
	<linearGradient id="SVGID_11_" gradientUnits="userSpaceOnUse" x1="24.8086" y1="78.1616" x2="34.6144" y2="51.2205">
		<stop  offset="0" style="stop-color:#FEE190"/>
		<stop  offset="1" style="stop-color:#FBC400"/>
	</linearGradient>
	<path fill="url(#SVGID_11_)" d="M21.943,55.81c0.857-4.726,4.043-7.364,9.262-7.414c4.516-0.043,8.055,2.732,9.199,7.238
		L21.943,55.81z M55.442,64.822l-0.021-2.106c-0.146-15.553-9.768-24.792-25.518-24.642C14.853,38.217,5.212,47.941,5.354,62.791
		c0.14,14.648,10.564,23.981,26.617,23.828c12.039-0.113,19.914-5.607,22.827-16.895l-15.452,0.146
		c-1.976,4.154-3.971,5.377-7.686,5.412c-6.62,0.062-9.862-3.219-10.028-10.14L55.442,64.822z"/>
	<linearGradient id="SVGID_12_" gradientUnits="userSpaceOnUse" x1="133.9966" y1="77.3452" x2="133.9966" y2="39.1967">
		<stop  offset="0" style="stop-color:#FEE190"/>
		<stop  offset="1" style="stop-color:#FBC400"/>
	</linearGradient>
	<path fill="url(#SVGID_12_)" d="M145.405,30.902c0,0,1.478-2.986,5.014-5.054c-4.81-2.425-10.38-3.778-16.423-3.778
		c-19.459,0-34.029,14.11-34.029,32.738c0,18.721,14.57,32.832,34.029,32.832s34.029-14.111,34.029-32.832
		c0-8.104-2.733-15.322-7.408-20.907C153.906,30.2,145.405,30.902,145.405,30.902z M133.996,72.146
		c-9.592,0-17.338-7.746-17.338-17.338c0-9.498,7.746-17.244,17.338-17.244c9.591,0,17.338,7.746,17.338,17.244
		C151.334,64.4,143.587,72.146,133.996,72.146z"/>
</g>
<g>
	<linearGradient id="SVGID_13_" gradientUnits="userSpaceOnUse" x1="20.8008" y1="89.0454" x2="29.9185" y2="63.9947">
		<stop  offset="0" style="stop-color:#FEE190"/>
		<stop  offset="1" style="stop-color:#FBC400"/>
	</linearGradient>
	<path fill="url(#SVGID_13_)" d="M29.933,41.074L29.933,41.074C16.496,41.202,8.227,49.512,8.354,62.762
		c0.123,13.003,9.162,20.994,23.588,20.856c9.377-0.088,15.495-3.665,18.633-10.854c-3.756,0.036-7.492,0.071-9.416,0.09
		c-2.249,3.83-5.031,5.387-9.469,5.429c-8.216,0.077-12.853-4.563-13.057-13.067c0-0.024-0.001-0.048-0.001-0.072
		c0-0.777,0.302-1.525,0.843-2.086c0.559-0.577,1.326-0.906,2.129-0.914c0,0,25.668-0.244,30.742-0.292
		c-0.234-6.316-2.197-11.539-5.806-15.081C42.674,42.977,36.931,41.006,29.933,41.074z M19.65,57.744
		c-0.576-0.684-0.818-1.589-0.658-2.469c1.127-6.215,5.568-9.815,12.185-9.879c0,0,0,0,0.001,0
		c5.891-0.056,10.653,3.673,12.135,9.499c0.227,0.893,0.031,1.839-0.531,2.569c-0.561,0.729-1.428,1.161-2.348,1.17L21.973,58.81
		C21.078,58.819,20.227,58.427,19.65,57.744z"/>
	<linearGradient id="SVGID_14_" gradientUnits="userSpaceOnUse" x1="133.9966" y1="94.064" x2="133.9966" y2="57.3749">
		<stop  offset="0" style="stop-color:#FEE190"/>
		<stop  offset="1" style="stop-color:#FBC400"/>
	</linearGradient>
	<path fill="url(#SVGID_14_)" d="M145.405,30.902c0,0,0.708-1.423,2.299-2.982c-4.091-1.835-8.727-2.85-13.708-2.85
		c-17.689,0-31.029,12.785-31.029,29.738c0,17.007,13.34,29.832,31.029,29.832s31.029-12.825,31.029-29.832
		c0-9.669-4.344-17.978-11.355-23.336C149.175,30.594,145.405,30.902,145.405,30.902z M154.334,54.808
		c0,11.215-9.123,20.338-20.338,20.338s-20.338-9.123-20.338-20.338c0-11.163,9.123-20.244,20.338-20.244
		S154.334,43.645,154.334,54.808z"/>
</g>
<linearGradient id="SVGID_15_" gradientUnits="userSpaceOnUse" x1="111.1719" y1="87.3833" x2="171.1772" y2="87.3833">
	<stop  offset="0" style="stop-color:#00489B"/>
	<stop  offset="0.6573" style="stop-color:#FFFFFF"/>
</linearGradient>
<path fill="url(#SVGID_15_)" d="M154.936,90.674c-6.074,3.162-13.143,4.938-20.828,4.938c-15.601,0-28.666-7.3-35.988-18.721
	c-0.534,1.062-1.147,2.06-1.84,2.991c8.316,11.061,21.869,17.992,37.828,17.992c7.358,0,14.202-1.479,20.262-4.149
	c0.059-0.493,0.147-0.993,0.3-1.501C154.851,91.599,154.922,91.102,154.936,90.674z"/>
<linearGradient id="SVGID_16_" gradientUnits="userSpaceOnUse" x1="185.6152" y1="62.3853" x2="162.4702" y2="53.0341">
	<stop  offset="0" style="stop-color:#8997CA"/>
	<stop  offset="0.6517" style="stop-color:#00489B"/>
</linearGradient>
<path fill="url(#SVGID_16_)" d="M181.56,21.196c-0.533-3.866-0.076-6.17,0.553-7.523c-0.048-0.055-9.229-0.055-11.013,11.802
	c-4.407-2.533-8.86-2.279-12.58-1.223c-0.609,0.173-0.516,0.408,0.097,0.379c2.412-0.111,4.691,0.375,6.816,1.496
	c-4.19-0.998-11.696-1.091-15.788,2.451c-0.212,0.139-0.362,0.232-0.425,0.257c0.356,0.067,3.797-0.57,11.562,2.77
	c3.222,1.387,8.758,2.906,10.851-0.44c1.885,4.318,3.151,8.299,3.949,11.973c-1.427-2.412-3.207-3.533-3.72-3.685
	c-2.071-1.168-5.024-1.175-5.026-1.175c0,0,0.411,1.76,1.398,2.719c2.32,2.251,5.688,1.621,5.621,1.445
	c-0.022-0.581-0.181-1.07-0.421-1.497c1.736,1.839,2.901,6.34,3.1,8.392c0.743,7.714-0.778,14.199-2.448,19.225
	c-3.019,7.746-6.582,13.091-13.428,19.286c-1.987-2.938-5.565-3.279-6.046-2.163c-0.012,0.028-0.016,0.055-0.026,0.083
	c1.875-0.181,6.482,1.777,6.086,6.53c-0.515,5.667-5.041,3.88-4.139,0.148c0.608-2.58-0.521-3.87-1.51-4.714
	c0.546,1.002,1.219,2.357,0.447,5.018c-1.836,6.111,5.382,8.542,6.431,0.677c0.033-0.389,0.033-0.751,0.028-1.11
	c12.332-10,18.652-27.047,17.088-43.295c-0.308-3.229-0.543-4.464-1.428-8.119c-0.73-2.813-1.688-5.552-2.902-8.155
	C178.011,32.92,182.568,28.664,181.56,21.196z"/>
<g>
	<linearGradient id="SVGID_17_" gradientUnits="userSpaceOnUse" x1="173.0137" y1="21.9966" x2="176.7975" y2="23.5254">
		<stop  offset="0" style="stop-color:#8997CA"/>
		<stop  offset="1" style="stop-color:#00489B"/>
	</linearGradient>
	<path fill="url(#SVGID_17_)" d="M172.962,25.753l-0.41,2.728c0,0-0.044-0.025-0.046-0.026c0.41,0.94,0.854,1.956,0.854,1.956
		c0.057,0.13,0.093,0.257,0.148,0.387c0.617,0.032,1.279,0.067,1.279,0.067c0.708,0.037,1.851-0.342,2.934-1.517
		c1.364-1.48,2.096-3.649,2.096-6.116c0-0.58-0.041-1.176-0.124-1.784c-0.167-1.218-0.251-2.353-0.251-3.402
		c0-0.719,0.09-1.347,0.169-1.984C177.274,16.931,173.934,19.294,172.962,25.753z"/>
	<linearGradient id="SVGID_18_" gradientUnits="userSpaceOnUse" x1="155.2246" y1="24.2944" x2="163.4233" y2="27.6069">
		<stop  offset="0" style="stop-color:#8997CA"/>
		<stop  offset="1" style="stop-color:#00489B"/>
	</linearGradient>
	<path fill="url(#SVGID_18_)" d="M163.78,27.782c-2.629-0.588-4.715-0.605-7.998,0.068c1.787,0.483,3.692,1.142,5.744,2.023
		c3.159,1.36,7.284,2.253,8.511,0.291c0,0,0.914-1.463,1.439-2.302c-0.651-0.375-1.315-0.756-1.315-0.756
		c-1.359-0.781-2.806-1.201-4.298-1.455C166.92,28.45,163.78,27.782,163.78,27.782z"/>
</g>
<linearGradient id="SVGID_19_" gradientUnits="userSpaceOnUse" x1="101.6182" y1="41.665" x2="148.4807" y2="41.665">
	<stop  offset="0" style="stop-color:#FFFFFF"/>
	<stop  offset="0.1573" style="stop-color:#FFFFFF"/>
	<stop  offset="0.2131" style="stop-color:#FFF7E0"/>
	<stop  offset="0.2936" style="stop-color:#FFEBB4"/>
	<stop  offset="0.3782" style="stop-color:#FEE08A"/>
	<stop  offset="0.4653" style="stop-color:#FDD764"/>
	<stop  offset="0.5556" style="stop-color:#FDD041"/>
	<stop  offset="0.6499" style="stop-color:#FCCB1B"/>
	<stop  offset="0.7502" style="stop-color:#FCC700"/>
	<stop  offset="0.8605" style="stop-color:#FBC500"/>
	<stop  offset="1" style="stop-color:#FBC400"/>
</linearGradient>
<path fill="url(#SVGID_19_)" d="M133.996,34.564c10.533,0,19.218,8.011,20.235,18.233c0.066-0.665,0.103-1.339,0.103-2.021
	c0-11.163-9.123-20.244-20.338-20.244s-20.338,9.081-20.338,20.244c0,0.682,0.036,1.355,0.103,2.021
	C114.778,42.575,123.463,34.564,133.996,34.564z"/>
</svg>
